<svg width="100%" viewBox="0 0 680 340" role="img" style="" xmlns="http://www.w3.org/2000/svg"><defs><mask id="imagine-text-gaps-sbkjvl" maskUnits="userSpaceOnUse"><rect x="0" y="0" width="680" height="340" fill="white"/><rect x="556.921875" y="77" width="66.1474609375" height="15" fill="black" rx="2"/><rect x="563.484375" y="164" width="53.4580078125" height="16" fill="black" rx="2"/></mask></defs>
<title style="fill:rgb(0, 0, 0);stroke:none;color:rgb(0, 0, 0);stroke-width:1px;stroke-linecap:butt;stroke-linejoin:miter;opacity:1;font-family:&quot;Anthropic Sans&quot;, -apple-system, BlinkMacSystemFont, &quot;Segoe UI&quot;, sans-serif;font-size:16px;font-weight:400;text-anchor:start;dominant-baseline:auto">Logo e favicon — trevo de 4 folhas vazado azul e amarelo</title>
<desc style="fill:rgb(0, 0, 0);stroke:none;color:rgb(0, 0, 0);stroke-width:1px;stroke-linecap:butt;stroke-linejoin:miter;opacity:1;font-family:&quot;Anthropic Sans&quot;, -apple-system, BlinkMacSystemFont, &quot;Segoe UI&quot;, sans-serif;font-size:16px;font-weight:400;text-anchor:start;dominant-baseline:auto">Ícone trevo arredondado e versão favicon quadrada</desc>


<rect x="190" y="20" width="300" height="300" rx="24" fill="#0f1624" style="fill:rgb(15, 22, 36);stroke:none;color:rgb(0, 0, 0);stroke-width:1px;stroke-linecap:butt;stroke-linejoin:miter;opacity:1;font-family:&quot;Anthropic Sans&quot;, -apple-system, BlinkMacSystemFont, &quot;Segoe UI&quot;, sans-serif;font-size:16px;font-weight:400;text-anchor:start;dominant-baseline:auto"/>


<path d="M340 178&#10;  C338 170 318 158 316 138&#10;  C313 112 326 100 340 104&#10;  C354 100 367 112 364 138&#10;  C362 158 342 170 340 178Z" fill="none" stroke="#3264FF" stroke-width="7" stroke-linejoin="round" stroke-linecap="round" style="fill:none;stroke:rgb(50, 100, 255);color:rgb(0, 0, 0);stroke-width:7px;stroke-linecap:round;stroke-linejoin:round;opacity:1;font-family:&quot;Anthropic Sans&quot;, -apple-system, BlinkMacSystemFont, &quot;Segoe UI&quot;, sans-serif;font-size:16px;font-weight:400;text-anchor:start;dominant-baseline:auto"/>


<path d="M340 202&#10;  C342 210 362 222 364 242&#10;  C367 268 354 280 340 276&#10;  C326 280 313 268 316 242&#10;  C318 222 338 210 340 202Z" fill="none" stroke="#3264FF" stroke-width="7" stroke-linejoin="round" stroke-linecap="round" style="fill:none;stroke:rgb(50, 100, 255);color:rgb(0, 0, 0);stroke-width:7px;stroke-linecap:round;stroke-linejoin:round;opacity:1;font-family:&quot;Anthropic Sans&quot;, -apple-system, BlinkMacSystemFont, &quot;Segoe UI&quot;, sans-serif;font-size:16px;font-weight:400;text-anchor:start;dominant-baseline:auto"/>


<path d="M328 190&#10;  C320 188 306 170 286 168&#10;  C260 165 248 178 252 192&#10;  C248 206 260 219 286 216&#10;  C306 214 320 196 328 194Z" fill="none" stroke="#3264FF" stroke-width="7" stroke-linejoin="round" stroke-linecap="round" style="fill:none;stroke:rgb(50, 100, 255);color:rgb(0, 0, 0);stroke-width:7px;stroke-linecap:round;stroke-linejoin:round;opacity:1;font-family:&quot;Anthropic Sans&quot;, -apple-system, BlinkMacSystemFont, &quot;Segoe UI&quot;, sans-serif;font-size:16px;font-weight:400;text-anchor:start;dominant-baseline:auto"/>


<path d="M352 190&#10;  C360 188 374 170 394 168&#10;  C420 165 432 178 428 192&#10;  C432 206 420 219 394 216&#10;  C374 214 360 196 352 194Z" fill="none" stroke="#F3E600" stroke-width="7" stroke-linejoin="round" stroke-linecap="round" style="fill:none;stroke:rgb(243, 230, 0);color:rgb(0, 0, 0);stroke-width:7px;stroke-linecap:round;stroke-linejoin:round;opacity:1;font-family:&quot;Anthropic Sans&quot;, -apple-system, BlinkMacSystemFont, &quot;Segoe UI&quot;, sans-serif;font-size:16px;font-weight:400;text-anchor:start;dominant-baseline:auto"/>


<circle cx="340" cy="192" r="8" fill="#F3E600" style="fill:rgb(243, 230, 0);stroke:none;color:rgb(0, 0, 0);stroke-width:1px;stroke-linecap:butt;stroke-linejoin:miter;opacity:1;font-family:&quot;Anthropic Sans&quot;, -apple-system, BlinkMacSystemFont, &quot;Segoe UI&quot;, sans-serif;font-size:16px;font-weight:400;text-anchor:start;dominant-baseline:auto"/>
<circle cx="340" cy="192" r="4" fill="#0f1624" style="fill:rgb(15, 22, 36);stroke:none;color:rgb(0, 0, 0);stroke-width:1px;stroke-linecap:butt;stroke-linejoin:miter;opacity:1;font-family:&quot;Anthropic Sans&quot;, -apple-system, BlinkMacSystemFont, &quot;Segoe UI&quot;, sans-serif;font-size:16px;font-weight:400;text-anchor:start;dominant-baseline:auto"/>


<path d="M340 276 C340 290 335 305 328 310" fill="none" stroke="#3264FF" stroke-width="6" stroke-linecap="round" style="fill:none;stroke:rgb(50, 100, 255);color:rgb(0, 0, 0);stroke-width:6px;stroke-linecap:round;stroke-linejoin:miter;opacity:1;font-family:&quot;Anthropic Sans&quot;, -apple-system, BlinkMacSystemFont, &quot;Segoe UI&quot;, sans-serif;font-size:16px;font-weight:400;text-anchor:start;dominant-baseline:auto"/>
<path d="M340 276 C340 290 345 305 352 310" fill="none" stroke="#3264FF" stroke-width="3.5" stroke-linecap="round" opacity=".4" style="fill:none;stroke:rgb(50, 100, 255);color:rgb(0, 0, 0);stroke-width:3.5px;stroke-linecap:round;stroke-linejoin:miter;opacity:0.4;font-family:&quot;Anthropic Sans&quot;, -apple-system, BlinkMacSystemFont, &quot;Segoe UI&quot;, sans-serif;font-size:16px;font-weight:400;text-anchor:start;dominant-baseline:auto"/>



<rect x="540" y="60" width="100" height="100" rx="18" fill="#0f1624" style="fill:rgb(15, 22, 36);stroke:none;color:rgb(0, 0, 0);stroke-width:1px;stroke-linecap:butt;stroke-linejoin:miter;opacity:1;font-family:&quot;Anthropic Sans&quot;, -apple-system, BlinkMacSystemFont, &quot;Segoe UI&quot;, sans-serif;font-size:16px;font-weight:400;text-anchor:start;dominant-baseline:auto"/>
<text x="590" y="88" text-anchor="middle" font-family="sans-serif" font-size="10" fill="#55566a" style="fill:rgb(85, 86, 106);stroke:none;color:rgb(0, 0, 0);stroke-width:1px;stroke-linecap:butt;stroke-linejoin:miter;opacity:1;font-family:sans-serif;font-size:10px;font-weight:400;text-anchor:middle;dominant-baseline:auto">favicon 32px</text>


<path d="M590 115 C589 111 581 107 580 101 C579 93 584 90 590 91 C596 90 601 93 600 101 C599 107 591 111 590 115Z" fill="none" stroke="#3264FF" stroke-width="3.5" stroke-linejoin="round" stroke-linecap="round" mask="url(#imagine-text-gaps-sbkjvl)" style="fill:none;stroke:rgb(50, 100, 255);color:rgb(0, 0, 0);stroke-width:3.5px;stroke-linecap:round;stroke-linejoin:round;opacity:1;font-family:&quot;Anthropic Sans&quot;, -apple-system, BlinkMacSystemFont, &quot;Segoe UI&quot;, sans-serif;font-size:16px;font-weight:400;text-anchor:start;dominant-baseline:auto"/>

<path d="M590 123 C591 127 599 131 600 137 C601 145 596 148 590 147 C584 148 579 145 580 137 C581 131 589 127 590 123Z" fill="none" stroke="#3264FF" stroke-width="3.5" stroke-linejoin="round" stroke-linecap="round" style="fill:none;stroke:rgb(50, 100, 255);color:rgb(0, 0, 0);stroke-width:3.5px;stroke-linecap:round;stroke-linejoin:round;opacity:1;font-family:&quot;Anthropic Sans&quot;, -apple-system, BlinkMacSystemFont, &quot;Segoe UI&quot;, sans-serif;font-size:16px;font-weight:400;text-anchor:start;dominant-baseline:auto"/>

<path d="M585 119 C582 118 576 112 568 111 C560 110 556 115 558 119 C556 123 560 128 568 127 C576 126 582 122 585 121Z" fill="none" stroke="#3264FF" stroke-width="3.5" stroke-linejoin="round" stroke-linecap="round" style="fill:none;stroke:rgb(50, 100, 255);color:rgb(0, 0, 0);stroke-width:3.5px;stroke-linecap:round;stroke-linejoin:round;opacity:1;font-family:&quot;Anthropic Sans&quot;, -apple-system, BlinkMacSystemFont, &quot;Segoe UI&quot;, sans-serif;font-size:16px;font-weight:400;text-anchor:start;dominant-baseline:auto"/>

<path d="M595 119 C598 118 604 112 612 111 C620 110 624 115 622 119 C624 123 620 128 612 127 C604 126 598 122 595 121Z" fill="none" stroke="#F3E600" stroke-width="3.5" stroke-linejoin="round" stroke-linecap="round" style="fill:none;stroke:rgb(243, 230, 0);color:rgb(0, 0, 0);stroke-width:3.5px;stroke-linecap:round;stroke-linejoin:round;opacity:1;font-family:&quot;Anthropic Sans&quot;, -apple-system, BlinkMacSystemFont, &quot;Segoe UI&quot;, sans-serif;font-size:16px;font-weight:400;text-anchor:start;dominant-baseline:auto"/>

<circle cx="590" cy="119" r="3.5" fill="#F3E600" style="fill:rgb(243, 230, 0);stroke:none;color:rgb(0, 0, 0);stroke-width:1px;stroke-linecap:butt;stroke-linejoin:miter;opacity:1;font-family:&quot;Anthropic Sans&quot;, -apple-system, BlinkMacSystemFont, &quot;Segoe UI&quot;, sans-serif;font-size:16px;font-weight:400;text-anchor:start;dominant-baseline:auto"/>
<circle cx="590" cy="119" r="1.8" fill="#0f1624" style="fill:rgb(15, 22, 36);stroke:none;color:rgb(0, 0, 0);stroke-width:1px;stroke-linecap:butt;stroke-linejoin:miter;opacity:1;font-family:&quot;Anthropic Sans&quot;, -apple-system, BlinkMacSystemFont, &quot;Segoe UI&quot;, sans-serif;font-size:16px;font-weight:400;text-anchor:start;dominant-baseline:auto"/>

<path d="M590 147 C590 152 588 156 585 158" fill="none" stroke="#3264FF" stroke-width="2.5" stroke-linecap="round" style="fill:none;stroke:rgb(50, 100, 255);color:rgb(0, 0, 0);stroke-width:2.5px;stroke-linecap:round;stroke-linejoin:miter;opacity:1;font-family:&quot;Anthropic Sans&quot;, -apple-system, BlinkMacSystemFont, &quot;Segoe UI&quot;, sans-serif;font-size:16px;font-weight:400;text-anchor:start;dominant-baseline:auto"/>

<text x="590" y="175" text-anchor="middle" font-family="sans-serif" font-size="10" fill="#55566a" style="fill:rgb(85, 86, 106);stroke:none;color:rgb(0, 0, 0);stroke-width:1px;stroke-linecap:butt;stroke-linejoin:miter;opacity:1;font-family:sans-serif;font-size:10px;font-weight:400;text-anchor:middle;dominant-baseline:auto">simulação</text>

</svg>